<?xml version="1.0" encoding="UTF-8"?>
<svg id="Layer_2" xmlns="http://www.w3.org/2000/svg" xmlns:xlink="http://www.w3.org/1999/xlink" viewBox="0 0 170.86 170.86">
  <defs>
    <style>
      .cls-1 {
        fill: #187b3d;
      }

      .cls-2 {
        fill: #7ab255;
      }

      .cls-3 {
        fill: none;
      }

      .cls-4 {
        fill: #254c27;
      }

      .cls-5 {
        fill: #8db95e;
      }

      .cls-6 {
        fill: url(#linear-gradient);
      }
    </style>
    <linearGradient id="linear-gradient" x1="65.9" y1="62.4" x2="101.96" y2="126.09" gradientUnits="userSpaceOnUse">
      <stop offset="0" stop-color="#e5375d"/>
      <stop offset="1" stop-color="#961a3c"/>
    </linearGradient>
  </defs>
  <g id="Layer_2-2" data-name="Layer_2">
    <g>
      <path class="cls-6" d="M59.58,95.42s21.06-7.89,23.06-10.22c0,0,0-1.21,1.14-2.54,1.31-1.52,11.82-6.61,17.04-8.1,0,0-4.01,2.6-12.91,6.83,0,0-.12.59.4.85,0,0,7.68-4.18,13.31-5.85,0,0-4.38,3.12-12.81,6.69,0,0-.14.63.46.94,0,0,9.01-4.81,13.16-5.9,0,0-3.49,2.68-12.7,6.75,0,0-.11.57.42.83,0,0,8.81-4.19,13.25-5.88,0,0-3.97,2.91-12.83,7.08,0,0-5.29,2.07-6.87.39,0,0-.33-.26-2.2.63-1.87.9-17.23,8.39-21.5,11.39.04.05-11.04,7.03-11.04,7.18,0,.13,12.24-2.59,12.58-1.74,3.96,9.88,13.54,16.67,24.84,16.67,14.6,0,26.47-11.65,26.83-26.16,0-.11,0-.06,0,0,.02-.46,8.74-7.91,8.74-7.97s-8.98,3.67-8.98,3.66c0,0,0,.01,0,0l-18.17,7.66c-5.46,1.92-5.79,4.29-5.79,4.29-1.17,5.33-3.29,6.08-3.29,6.08-3.04,3.04-9.5,3.33-9.5,3.33,0,0-6,.67-6.92-3-.92-3.67,3.54-7.38,3.54-7.38,7.83-7,12.88-3.58,12.88-3.58,2.46,1.21,3.46.83,3.46.83,3.7-.46,22.87-12.11,23-12.19-3.15-11.25-13.48-19.24-25.8-19.24-14.82,0-26.83,12.01-26.83,26.83,0,0-.03.51.02.84"/>
      <path class="cls-5" d="M113.18,95.26s0,0,0,0c0,.11,0,.05,0,0Z"/>
    </g>
    <path class="cls-4" d="M72.48,69.47c-1.36-1.22-6.28-5.82-6.61-9.04-.39-3.74-2.25-15.32,9.29-25.7,0,0,5.27,4.56,6.79,15.42,0,0,2.77,13.24-8.18,19.15l-1.29.17Z"/>
    <path class="cls-1" d="M73.75,69.32s-8.39,2.02-13.01-.18c-3.34-1.59-12.21-5.71-14.43-20.82,0,0,6.61-1.83,16.33,2.83,0,0,13.06,5.22,11.11,18.17Z"/>
    <path class="cls-4" d="M60.77,115.8s8.58,8.62,22.75,10.5c0,0-14.62,4.12-22.75-10.5Z"/>
    <path class="cls-4" d="M87.52,63.9s12.14.88,22.79,10.4c0,0-6.41-13.78-22.79-10.4Z"/>
    <path class="cls-2" d="M101.34,58.98s11.22,4.72,18.27,17.15c0,0-1.67-15.1-18.27-17.15Z"/>
    <path class="cls-2" d="M68.36,128.52s-11.19-4.78-18.17-17.25c0,0,1.58,15.11,18.17,17.25Z"/>
    <rect class="cls-3" width="170.86" height="170.86"/>
  </g>
</svg>